<?xml version="1.0" encoding="UTF-8" standalone="no"?>
<svg
 xmlns="http://www.w3.org/2000/svg" xmlns:xlink="http://www.w3.org/1999/xlink"  version="1.2" baseProfile="tiny">
<title>Qt SVG Document</title>
<desc>Generated with Qt</desc>
<defs>
<linearGradient gradientUnits="userSpaceOnUse" x1="0" y1="0" x2="0" y2="15" id="gradient1">
    <stop offset="0" stop-color="#39a8ee" stop-opacity="1" />
    <stop offset="1" stop-color="#308cc6" stop-opacity="1" />
</linearGradient>
<linearGradient gradientUnits="userSpaceOnUse" x1="0" y1="0" x2="0" y2="15" id="gradient2">
    <stop offset="0" stop-color="#39a8ee" stop-opacity="1" />
    <stop offset="1" stop-color="#308cc6" stop-opacity="1" />
</linearGradient>
<linearGradient gradientUnits="userSpaceOnUse" x1="0" y1="0" x2="0" y2="15" id="gradient3">
    <stop offset="0" stop-color="#39a8ee" stop-opacity="1" />
    <stop offset="1" stop-color="#308cc6" stop-opacity="1" />
</linearGradient>
<linearGradient gradientUnits="userSpaceOnUse" x1="0" y1="0" x2="0" y2="15" id="gradient4">
    <stop offset="0" stop-color="#39a8ee" stop-opacity="1" />
    <stop offset="1" stop-color="#308cc6" stop-opacity="1" />
</linearGradient>
<linearGradient gradientUnits="userSpaceOnUse" x1="0" y1="0" x2="0" y2="15" id="gradient5">
    <stop offset="0" stop-color="#39a8ee" stop-opacity="1" />
    <stop offset="1" stop-color="#308cc6" stop-opacity="1" />
</linearGradient>
<linearGradient gradientUnits="userSpaceOnUse" x1="0" y1="0" x2="0" y2="15" id="gradient6">
    <stop offset="0" stop-color="#39a8ee" stop-opacity="1" />
    <stop offset="1" stop-color="#308cc6" stop-opacity="1" />
</linearGradient>
</defs>
<g fill="none" stroke="black" stroke-width="1" fill-rule="evenodd" stroke-linecap="square" stroke-linejoin="bevel" >

<g fill="#ffffff" fill-opacity="1" stroke="none" transform="matrix(1,0,0,1,0,0)"
font-family="Bitstream Vera Sans" font-size="12" font-weight="400" font-style="normal" 
>
<rect x="0" y="0" width="1024" height="31"/>
</g>

<g fill="#000000" fill-opacity="1" stroke="#000000" stroke-opacity="1" stroke-width="1" stroke-linecap="butt" stroke-linejoin="miter" stroke-miterlimit="2" transform="matrix(1,0,0,1,0,0)"
font-family="Bitstream Vera Sans" font-size="12" font-weight="400" font-style="normal" 
>
</g>

<g fill="#000000" fill-opacity="1" stroke="#000000" stroke-opacity="1" stroke-width="1" stroke-linecap="butt" stroke-linejoin="miter" stroke-miterlimit="2" transform="matrix(1,0,0,1,0,0)"
font-family="Bitstream Vera Sans" font-size="12" font-weight="400" font-style="normal" 
>
</g>

<g fill="#000000" fill-opacity="1" stroke="#000000" stroke-opacity="1" stroke-width="1" stroke-linecap="butt" stroke-linejoin="miter" stroke-miterlimit="2" transform="matrix(1,0,0,1,0,0)"
font-family="Bitstream Vera Sans" font-size="12" font-weight="400" font-style="normal" 
>
</g>

<g fill="#ffffff" fill-opacity="1" stroke="none" transform="matrix(1,0,0,1,0,0)"
font-family="Bitstream Vera Sans" font-size="12" font-weight="400" font-style="normal" 
>
<rect x="0" y="0" width="1024" height="31"/>
</g>

<g fill="none" stroke="#000000" stroke-opacity="1" stroke-width="1" stroke-linecap="butt" stroke-linejoin="miter" stroke-miterlimit="2" transform="matrix(1,0,0,1,8,7)"
font-family="Bitstream Vera Sans" font-size="12" font-weight="400" font-style="normal" 
>
</g>

<g fill="none" stroke="#000000" stroke-opacity="0.0627451" stroke-width="1" stroke-linecap="square" stroke-linejoin="bevel" transform="matrix(1,0,0,1,8.5,7.5)"
font-family="Bitstream Vera Sans" font-size="12" font-weight="400" font-style="normal" 
>
<polyline fill="none" vector-effect="none" points="0,-1 159,-1 " />
</g>

<g fill="#ffffff" fill-opacity="1" stroke="#ababab" stroke-opacity="1" stroke-width="1" stroke-linecap="square" stroke-linejoin="bevel" transform="matrix(1,0,0,1,8.5,7.5)"
font-family="Bitstream Vera Sans" font-size="12" font-weight="400" font-style="normal" 
>
<path vector-effect="none" fill-rule="evenodd" d="M0,2 C0,0.895431 0.895431,0 2,0 L157,0 C158.105,0 159,0.895431 159,2 L159,13 C159,14.1046 158.105,15 157,15 L2,15 C0.895431,15 0,14.1046 0,13 L0,2"/>
</g>

<g fill="#ffffff" fill-opacity="1" stroke="#000000" stroke-opacity="0.0705882" stroke-width="1" stroke-linecap="square" stroke-linejoin="bevel" transform="matrix(1,0,0,1,8.5,7.5)"
font-family="Bitstream Vera Sans" font-size="12" font-weight="400" font-style="normal" 
>
<polyline fill="none" vector-effect="none" points="1,1 158,1 " />
</g>

<g fill="none" stroke="#000000" stroke-opacity="1" stroke-width="1" stroke-linecap="butt" stroke-linejoin="miter" stroke-miterlimit="2" transform="matrix(1,0,0,1,8,7)"
font-family="Bitstream Vera Sans" font-size="12" font-weight="400" font-style="normal" 
>
</g>

<g fill="none" stroke="#000000" stroke-opacity="0.137255" stroke-width="1" stroke-linecap="square" stroke-linejoin="bevel" transform="matrix(1,0,0,1,8.5,7.5)"
font-family="Bitstream Vera Sans" font-size="12" font-weight="400" font-style="normal" 
>
<polyline fill="none" vector-effect="none" points="12,1 12,14 " />
</g>

<g fill="none" stroke="#22648d" stroke-opacity="1" stroke-width="1" stroke-linecap="square" stroke-linejoin="bevel" transform="matrix(1,0,0,1,8.5,7.5)"
font-family="Bitstream Vera Sans" font-size="12" font-weight="400" font-style="normal" 
>
<polyline fill="none" vector-effect="none" points="11,1 11,14 " />
</g>

<g fill="url(#gradient1)" stroke="#22648d" stroke-opacity="1" stroke-width="1" stroke-linecap="square" stroke-linejoin="bevel" transform="matrix(1,0,0,1,8.5,7.5)"
font-family="Bitstream Vera Sans" font-size="12" font-weight="400" font-style="normal" 
>
</g>

<g fill="url(#gradient2)" stroke="#22648d" stroke-opacity="1" stroke-width="1" stroke-linecap="square" stroke-linejoin="bevel" transform="matrix(1,0,0,1,8.5,7.5)"
font-family="Bitstream Vera Sans" font-size="12" font-weight="400" font-style="normal" 
>
<path vector-effect="none" fill-rule="evenodd" d="M0,2 C0,0.895431 0.895431,0 2,0 L11,0 C12.1046,0 13,0.895431 13,2 L13,13 C13,14.1046 12.1046,15 11,15 L2,15 C0.895431,15 0,14.1046 0,13 L0,2"/>
</g>

<g fill="url(#gradient3)" stroke="#22648d" stroke-opacity="1" stroke-width="1" stroke-linecap="square" stroke-linejoin="bevel" transform="matrix(1,0,0,1,8.5,7.5)"
font-family="Bitstream Vera Sans" font-size="12" font-weight="400" font-style="normal" 
>
</g>

<g fill="url(#gradient4)" stroke="#22648d" stroke-opacity="1" stroke-width="1" stroke-linecap="square" stroke-linejoin="bevel" transform="matrix(1,0,0,1,0,0)"
font-family="Bitstream Vera Sans" font-size="12" font-weight="400" font-style="normal" 
>
</g>

<g fill="url(#gradient5)" stroke="#22648d" stroke-opacity="1" stroke-width="1" stroke-linecap="square" stroke-linejoin="bevel" transform="matrix(1,0,0,1,0,0)"
font-family="Bitstream Vera Sans" font-size="12" font-weight="400" font-style="normal" 
>
</g>

<g fill="url(#gradient6)" stroke="#22648d" stroke-opacity="1" stroke-width="1" stroke-linecap="square" stroke-linejoin="bevel" transform="matrix(1,0,0,1,8.5,7.5)"
font-family="Bitstream Vera Sans" font-size="12" font-weight="400" font-style="normal" 
>
</g>

<g fill="none" stroke="#ffffff" stroke-opacity="0.196078" stroke-width="1" stroke-linecap="square" stroke-linejoin="bevel" transform="matrix(1,0,0,1,8.5,7.5)"
font-family="Bitstream Vera Sans" font-size="12" font-weight="400" font-style="normal" 
>
<path vector-effect="none" fill-rule="evenodd" d="M1,2 C1,1.44772 1.44772,1 2,1 L9,1 C9.55228,1 10,1.44772 10,2 L10,13 C10,13.5523 9.55228,14 9,14 L2,14 C1.44772,14 1,13.5523 1,13 L1,2"/>
</g>

<g fill="none" stroke="#000000" stroke-opacity="1" stroke-width="1" stroke-linecap="butt" stroke-linejoin="miter" stroke-miterlimit="2" transform="matrix(1,0,0,1,8,7)"
font-family="Bitstream Vera Sans" font-size="12" font-weight="400" font-style="normal" 
>
</g>

<g fill="#000000" fill-opacity="1" stroke="#000000" stroke-opacity="1" stroke-width="1" stroke-linecap="butt" stroke-linejoin="miter" stroke-miterlimit="2" transform="matrix(1,0,0,1,0,0)"
font-family="Bitstream Vera Sans" font-size="12" font-weight="400" font-style="normal" 
>
</g>

<g fill="#000000" fill-opacity="1" stroke="#000000" stroke-opacity="1" stroke-width="1" stroke-linecap="butt" stroke-linejoin="miter" stroke-miterlimit="2" transform="matrix(1,0,0,1,0,0)"
font-family="Bitstream Vera Sans" font-size="12" font-weight="400" font-style="normal" 
>
</g>

<g fill="#000000" fill-opacity="1" stroke="#000000" stroke-opacity="1" stroke-width="1" stroke-linecap="butt" stroke-linejoin="miter" stroke-miterlimit="2" transform="matrix(1,0,0,1,0,0)"
font-family="Bitstream Vera Sans" font-size="12" font-weight="400" font-style="normal" 
>
</g>
</g>
</svg>
